<mxfile host="app.diagrams.net" modified="2024-01-29T05:21:13.238Z" agent="Mozilla/5.0 (Windows NT 10.0; Win64; x64) AppleWebKit/537.36 (KHTML, like Gecko) Chrome/120.0.0.0 Safari/537.36 Edg/120.0.0.0" version="23.0.2" etag="kAFChueNp3k7fNAwqXoQ" type="github">
  <diagram name="Page-1" id="I4sVX_8uu_NQma43sPe2">
    <mxGraphModel>
      <root>
        <mxCell id="0" />
        <mxCell id="1" parent="0" />
      </root>
    </mxGraphModel>
  </diagram>
</mxfile>
